<svg width="60" height="60" viewBox="0 0 60 60" fill="none" xmlns="http://www.w3.org/2000/svg">
<path d="M30 56.875C15.175 56.875 3.125 44.825 3.125 30C3.125 15.175 15.175 3.125 30 3.125C44.825 3.125 56.875 15.175 56.875 30C56.875 44.825 44.825 56.875 30 56.875ZM30 6.875C17.25 6.875 6.875 17.25 6.875 30C6.875 42.75 17.25 53.125 30 53.125C42.75 53.125 53.125 42.75 53.125 30C53.125 17.25 42.75 6.875 30 6.875Z" fill="#292D32"/>
<path d="M26.85 40.6999C26.375 40.6999 25.9 40.5249 25.525 40.1499C24.8 39.4249 24.8 38.2249 25.525 37.4999L33.025 29.9999L25.525 22.4999C24.8 21.7749 24.8 20.5749 25.525 19.8499C26.25 19.1249 27.45 19.1249 28.175 19.8499L37 28.6749C37.725 29.3999 37.725 30.5999 37 31.3249L28.175 40.1499C27.8 40.5249 27.325 40.6999 26.85 40.6999Z" fill="#292D32"/>
</svg>
