<svg width="60" height="60" viewBox="0 0 60 60" fill="none" xmlns="http://www.w3.org/2000/svg">
<path d="M30 56.875C44.825 56.875 56.875 44.825 56.875 30C56.875 15.175 44.825 3.125 30 3.125C15.175 3.125 3.125 15.175 3.125 30C3.125 44.825 15.175 56.875 30 56.875ZM30 6.875C42.75 6.875 53.125 17.25 53.125 30C53.125 42.75 42.75 53.125 30 53.125C17.25 53.125 6.875 42.75 6.875 30C6.875 17.25 17.25 6.875 30 6.875Z" fill="#292D32"/>
<path d="M33.15 40.6999C33.625 40.6999 34.1 40.5249 34.475 40.1499C35.2 39.4249 35.2 38.2249 34.475 37.4999L26.975 29.9999L34.475 22.4999C35.2 21.7749 35.2 20.5749 34.475 19.8499C33.75 19.1249 32.55 19.1249 31.825 19.8499L23 28.6749C22.275 29.3999 22.275 30.5999 23 31.3249L31.825 40.1499C32.2 40.5249 32.675 40.6999 33.15 40.6999Z" fill="#292D32"/>
</svg>
