<svg width="60" height="60" viewBox="0 0 60 60" fill="none" xmlns="http://www.w3.org/2000/svg">
<path d="M30 56.875C44.825 56.875 56.875 44.825 56.875 30C56.875 15.175 44.825 3.125 30 3.125C15.175 3.125 3.125 15.175 3.125 30C3.125 44.825 15.175 56.875 30 56.875ZM30 6.875C42.75 6.875 53.125 17.25 53.125 30C53.125 42.75 42.75 53.125 30 53.125C17.25 53.125 6.875 42.75 6.875 30C6.875 17.25 17.25 6.875 30 6.875Z" fill="white"/>
<path d="M33.15 40.7C33.625 40.7 34.1 40.525 34.475 40.15C35.2 39.425 35.2 38.225 34.475 37.5L26.975 30L34.475 22.5C35.2 21.775 35.2 20.575 34.475 19.85C33.75 19.125 32.55 19.125 31.825 19.85L23 28.675C22.275 29.4 22.275 30.6 23 31.325L31.825 40.15C32.2 40.525 32.675 40.7 33.15 40.7Z" fill="white"/>
</svg>
