<svg width="60" height="60" viewBox="0 0 60 60" fill="none" xmlns="http://www.w3.org/2000/svg">
<path d="M30 56.875C15.175 56.875 3.125 44.825 3.125 30C3.125 15.175 15.175 3.125 30 3.125C44.825 3.125 56.875 15.175 56.875 30C56.875 44.825 44.825 56.875 30 56.875ZM30 6.875C17.25 6.875 6.875 17.25 6.875 30C6.875 42.75 17.25 53.125 30 53.125C42.75 53.125 53.125 42.75 53.125 30C53.125 17.25 42.75 6.875 30 6.875Z" fill="white"/>
<path d="M26.85 40.7C26.375 40.7 25.9 40.525 25.525 40.15C24.8 39.425 24.8 38.225 25.525 37.5L33.025 30L25.525 22.5C24.8 21.775 24.8 20.575 25.525 19.85C26.25 19.125 27.45 19.125 28.175 19.85L37 28.675C37.725 29.4 37.725 30.6 37 31.325L28.175 40.15C27.8 40.525 27.325 40.7 26.85 40.7Z" fill="white"/>
</svg>
