<svg width="53" height="49" viewBox="0 0 53 49" fill="none" xmlns="http://www.w3.org/2000/svg">
  <path d="M35.5407 19.6785C35.3654 21.9312 35.5127 23.5353 37.7286 23.5353C38.0512 23.5416 38.37 23.4646 38.6541 23.3117C38.9383 23.1589 39.1783 22.9354 39.351 22.6629C39.5236 22.3903 39.6232 22.0778 39.6399 21.7556C39.6567 21.4334 39.5901 21.1123 39.4466 20.8233C38.9488 19.8486 37.8776 19.5242 35.5407 19.682M13.883 27.883C14.3721 28.8647 15.757 29.2119 17.7661 28.9945C18.0834 26.5226 17.4277 25.6408 16.6055 25.2919C14.3651 24.319 13.1379 26.6313 13.883 27.883ZM22.9202 28.9945H28.0042C36.4909 28.9559 35.5425 36.0875 35.5425 38.4612C35.5425 39.9724 35.5425 41.0698 35.5425 41.864C35.5425 42.9824 36.5242 43.8835 37.7251 43.8835H45.451C46.6571 43.8835 47.6336 42.9754 47.6336 41.8534V6.83708C47.6336 5.71685 46.6571 4.80699 45.451 4.80699H37.7374C36.5348 4.80699 35.56 5.71159 35.5565 6.83182L35.5302 14.8961C38.5911 14.8961 42.2516 15.3834 44.0433 18.9282C46.5817 24.2821 41.603 30.1077 34.8307 28.16C30.2481 26.4455 29.7748 22.7832 30.3761 19.6943H26.344C18.6532 19.6943 17.7538 14.3386 17.7538 10.445C17.7538 9.479 17.7416 8.01691 17.7293 6.82481C17.7188 5.70984 16.7458 4.814 15.5484 4.814H7.8348C6.65146 4.79823 5.66798 5.70808 5.66798 6.83708V41.8447C5.66798 42.9667 6.64445 43.8748 7.85058 43.8748H15.5642C16.7616 43.8748 17.7345 42.9789 17.7468 41.8657C17.7573 40.8138 17.7679 39.5183 17.7679 38.4524L17.7205 33.7892C14.7403 33.5806 11.1219 33.237 9.40383 30.1778C6.19391 24.6152 12.1667 17.7747 18.8144 20.7637C22.1734 22.224 23.362 25.0114 22.9202 28.9945ZM39.1136 48.673C34.2943 48.673 30.3866 45.0353 30.3866 40.5491V38.4454C30.3866 33.7121 29.1174 33.7121 27.9972 33.7121C25.3833 33.7121 24.0404 33.7804 22.9132 33.7804L22.9009 40.5491C22.9009 45.03 18.9898 48.6607 14.1758 48.6607H9.24079C4.42328 48.673 0.515625 45.0353 0.515625 40.5491V8.11684C0.515625 3.63768 4.42328 0 9.24079 0H14.1898C19.0055 0 22.9114 3.63242 22.9149 8.11684C22.9149 8.83911 22.9149 9.60989 22.9149 10.4292C22.9149 14.6015 23.8844 14.8803 26.3493 14.8803H30.3814V8.12385C30.3866 3.63768 34.2943 0 39.1136 0H44.0661C48.8853 0 52.7912 3.63768 52.7912 8.12385V40.5561C52.7912 45.0423 48.8853 48.68 44.0661 48.68L39.1136 48.673Z" fill="#222222" />
</svg>